<svg width="49" height="48" viewBox="0 0 49 48" fill="none" xmlns="http://www.w3.org/2000/svg">
<g id="fi-rr-portrait" clip-path="url(#clip0_8_1100)">
<path id="Vector" d="M38.5 0H10.5C7.84881 0.00317572 5.30712 1.05776 3.43244 2.93244C1.55776 4.80712 0.503176 7.34881 0.5 10L0.5 38C0.503176 40.6512 1.55776 43.1929 3.43244 45.0676C5.30712 46.9422 7.84881 47.9968 10.5 48H38.5C41.1512 47.9968 43.6929 46.9422 45.5676 45.0676C47.4422 43.1929 48.4968 40.6512 48.5 38V10C48.4968 7.34881 47.4422 4.80712 45.5676 2.93244C43.6929 1.05776 41.1512 0.00317572 38.5 0V0ZM14.5 44V42C14.5 39.3478 15.5536 36.8043 17.4289 34.9289C19.3043 33.0536 21.8478 32 24.5 32C27.1522 32 29.6957 33.0536 31.5711 34.9289C33.4464 36.8043 34.5 39.3478 34.5 42V44H14.5ZM44.5 38C44.5 39.5913 43.8679 41.1174 42.7426 42.2426C41.6174 43.3679 40.0913 44 38.5 44V42C38.5 38.287 37.025 34.726 34.3995 32.1005C31.774 29.475 28.213 28 24.5 28C20.787 28 17.226 29.475 14.6005 32.1005C11.975 34.726 10.5 38.287 10.5 42V44C8.9087 44 7.38258 43.3679 6.25736 42.2426C5.13214 41.1174 4.5 39.5913 4.5 38V10C4.5 8.4087 5.13214 6.88258 6.25736 5.75736C7.38258 4.63214 8.9087 4 10.5 4H38.5C40.0913 4 41.6174 4.63214 42.7426 5.75736C43.8679 6.88258 44.5 8.4087 44.5 10V38Z" fill="#564592"/>
<path id="Vector_2" d="M24.5002 8.00061C22.918 8.00061 21.3712 8.4698 20.0556 9.34885C18.74 10.2279 17.7147 11.4773 17.1092 12.9391C16.5037 14.401 16.3452 16.0095 16.6539 17.5613C16.9626 19.1132 17.7245 20.5386 18.8433 21.6575C19.9622 22.7763 21.3876 23.5382 22.9395 23.8469C24.4913 24.1556 26.0999 23.9971 27.5617 23.3916C29.0235 22.7861 30.2729 21.7608 31.152 20.4452C32.031 19.1296 32.5002 17.5829 32.5002 16.0006C32.5002 13.8789 31.6573 11.844 30.1571 10.3438C28.6568 8.84346 26.6219 8.00061 24.5002 8.00061ZM24.5002 20.0006C23.7091 20.0006 22.9357 19.766 22.2779 19.3265C21.6201 18.887 21.1074 18.2622 20.8047 17.5313C20.5019 16.8004 20.4227 15.9962 20.5771 15.2202C20.7314 14.4443 21.1124 13.7316 21.6718 13.1722C22.2312 12.6128 22.9439 12.2318 23.7198 12.0775C24.4958 11.9231 25.3 12.0023 26.0309 12.3051C26.7618 12.6078 27.3866 13.1205 27.8261 13.7783C28.2656 14.4361 28.5002 15.2095 28.5002 16.0006C28.5002 17.0615 28.0788 18.0789 27.3286 18.829C26.5785 19.5792 25.5611 20.0006 24.5002 20.0006Z" fill="#564592"/>
</g>
<defs>
<clipPath id="clip0_8_1100">
<rect width="48" height="48" fill="white" transform="translate(0.5)"/>
</clipPath>
</defs>
</svg>
