<svg width="49" height="48" viewBox="0 0 49 48" fill="none" xmlns="http://www.w3.org/2000/svg">
<g id="fi-rr-comment-alt" clip-path="url(#clip0_8_1126)">
<path id="Vector" d="M40.875 0H8.875C6.75327 0 4.71844 0.842855 3.21815 2.34315C1.71785 3.84344 0.875 5.87827 0.875 8L0.875 32C0.875 34.1217 1.71785 36.1566 3.21815 37.6569C4.71844 39.1571 6.75327 40 8.875 40H14.675L23.577 47.526C23.9381 47.8316 24.3959 47.9993 24.869 47.9993C25.3421 47.9993 25.7999 47.8316 26.161 47.526L35.075 40H40.875C42.9967 40 45.0316 39.1571 46.5319 37.6569C48.0321 36.1566 48.875 34.1217 48.875 32V8C48.875 5.87827 48.0321 3.84344 46.5319 2.34315C45.0316 0.842855 42.9967 0 40.875 0V0ZM44.875 32C44.875 33.0609 44.4536 34.0783 43.7034 34.8284C42.9533 35.5786 41.9359 36 40.875 36H35.075C34.1296 36.0003 33.2148 36.3354 32.493 36.946L24.875 43.38L17.261 36.946C16.5381 36.3346 15.6218 35.9993 14.675 36H8.875C7.81413 36 6.79672 35.5786 6.04657 34.8284C5.29643 34.0783 4.875 33.0609 4.875 32V8C4.875 6.93913 5.29643 5.92172 6.04657 5.17157C6.79672 4.42143 7.81413 4 8.875 4H40.875C41.9359 4 42.9533 4.42143 43.7034 5.17157C44.4536 5.92172 44.875 6.93913 44.875 8V32Z" fill="#564592"/>
<path id="Vector_2" d="M14.875 14.0003H24.875C25.4054 14.0003 25.9141 13.7896 26.2892 13.4145C26.6643 13.0394 26.875 12.5307 26.875 12.0003C26.875 11.4699 26.6643 10.9612 26.2892 10.5861C25.9141 10.211 25.4054 10.0003 24.875 10.0003H14.875C14.3446 10.0003 13.8359 10.211 13.4608 10.5861C13.0857 10.9612 12.875 11.4699 12.875 12.0003C12.875 12.5307 13.0857 13.0394 13.4608 13.4145C13.8359 13.7896 14.3446 14.0003 14.875 14.0003Z" fill="#564592"/>
<path id="Vector_3" d="M34.875 18H14.875C14.3446 18 13.8359 18.2107 13.4608 18.5858C13.0857 18.9609 12.875 19.4696 12.875 20C12.875 20.5304 13.0857 21.0391 13.4608 21.4142C13.8359 21.7893 14.3446 22 14.875 22H34.875C35.4054 22 35.9141 21.7893 36.2892 21.4142C36.6643 21.0391 36.875 20.5304 36.875 20C36.875 19.4696 36.6643 18.9609 36.2892 18.5858C35.9141 18.2107 35.4054 18 34.875 18Z" fill="#564592"/>
<path id="Vector_4" d="M34.875 25.9997H14.875C14.3446 25.9997 13.8359 26.2104 13.4608 26.5855C13.0857 26.9606 12.875 27.4693 12.875 27.9997C12.875 28.5301 13.0857 29.0389 13.4608 29.4139C13.8359 29.789 14.3446 29.9997 14.875 29.9997H34.875C35.4054 29.9997 35.9141 29.789 36.2892 29.4139C36.6643 29.0389 36.875 28.5301 36.875 27.9997C36.875 27.4693 36.6643 26.9606 36.2892 26.5855C35.9141 26.2104 35.4054 25.9997 34.875 25.9997Z" fill="#564592"/>
</g>
<defs>
<clipPath id="clip0_8_1126">
<rect width="48" height="48" fill="white" transform="translate(0.875)"/>
</clipPath>
</defs>
</svg>
