<svg width="49" height="48" viewBox="0 0 49 48" fill="none" xmlns="http://www.w3.org/2000/svg">
<g id="fi-rr-document-signed" clip-path="url(#clip0_8_1115)">
<path id="Vector" d="M39.445 6.2441L36.133 2.9281C35.2063 1.99673 34.1042 1.25838 32.8903 0.755789C31.6764 0.2532 30.3748 -0.00365095 29.061 0.000101566H16.375C13.7238 0.00327728 11.1821 1.05787 9.30744 2.93254C7.43276 4.80722 6.37818 7.34891 6.375 10.0001V38.0001C6.37818 40.6513 7.43276 43.193 9.30744 45.0677C11.1821 46.9423 13.7238 47.9969 16.375 48.0001H32.375C35.0262 47.9969 37.5679 46.9423 39.4426 45.0677C41.3172 43.193 42.3718 40.6513 42.375 38.0001V13.3141C42.3782 12.0005 42.1209 10.6992 41.618 9.48569C41.1151 8.27214 40.3765 7.17036 39.445 6.2441ZM36.617 9.0721C36.9007 9.35474 37.1547 9.6657 37.375 10.0001H32.375V5.0001C32.7089 5.22274 33.0203 5.47727 33.305 5.7601L36.617 9.0721ZM38.375 38.0001C38.375 39.5914 37.7429 41.1175 36.6176 42.2427C35.4924 43.368 33.9663 44.0001 32.375 44.0001H16.375C14.7837 44.0001 13.2576 43.368 12.1324 42.2427C11.0071 41.1175 10.375 39.5914 10.375 38.0001V10.0001C10.375 8.4088 11.0071 6.88268 12.1324 5.75746C13.2576 4.63224 14.7837 4.0001 16.375 4.0001H28.375V10.0001C28.375 11.061 28.7964 12.0784 29.5466 12.8285C30.2967 13.5787 31.3141 14.0001 32.375 14.0001H38.375V38.0001ZM32.375 18.0001C32.9054 18.0001 33.4141 18.2108 33.7892 18.5859C34.1643 18.961 34.375 19.4697 34.375 20.0001C34.375 20.5305 34.1643 21.0392 33.7892 21.4143C33.4141 21.7894 32.9054 22.0001 32.375 22.0001H16.375C15.8446 22.0001 15.3359 21.7894 14.9608 21.4143C14.5857 21.0392 14.375 20.5305 14.375 20.0001C14.375 19.4697 14.5857 18.961 14.9608 18.5859C15.3359 18.2108 15.8446 18.0001 16.375 18.0001H32.375ZM34.375 28.0001C34.375 28.5305 34.1643 29.0392 33.7892 29.4143C33.4141 29.7894 32.9054 30.0001 32.375 30.0001H16.375C15.8446 30.0001 15.3359 29.7894 14.9608 29.4143C14.5857 29.0392 14.375 28.5305 14.375 28.0001C14.375 27.4697 14.5857 26.961 14.9608 26.5859C15.3359 26.2108 15.8446 26.0001 16.375 26.0001H32.375C32.9054 26.0001 33.4141 26.2108 33.7892 26.5859C34.1643 26.961 34.375 27.4697 34.375 28.0001ZM33.991 34.8261C34.3019 35.2538 34.4308 35.7872 34.3494 36.3097C34.2681 36.8321 33.9832 37.3011 33.557 37.6141C31.5306 39.058 29.1306 39.8865 26.645 40.0001C25.1928 39.9931 23.7846 39.5003 22.645 38.6001C21.989 38.1501 21.739 38.0001 21.245 38.0001C19.9079 38.207 18.6462 38.7538 17.581 39.5881C17.1585 39.8893 16.6355 40.0145 16.1224 39.9373C15.6093 39.86 15.1463 39.5864 14.8312 39.1742C14.516 38.762 14.3734 38.2435 14.4335 37.7281C14.4935 37.2127 14.7515 36.7408 15.153 36.4121C16.9154 35.044 19.0316 34.2072 21.253 34.0001C22.5853 34.0214 23.8732 34.4819 24.917 35.3101C25.3928 35.738 26.0053 35.9826 26.645 36.0001C28.2803 35.8776 29.8529 35.3189 31.199 34.3821C31.6282 34.071 32.1634 33.943 32.6869 34.0263C33.2104 34.1095 33.6795 34.3972 33.991 34.8261Z" fill="#564592"/>
</g>
<defs>
<clipPath id="clip0_8_1115">
<rect width="48" height="48" fill="white" transform="translate(0.375)"/>
</clipPath>
</defs>
</svg>
