<svg width="49" height="48" viewBox="0 0 49 48" fill="none" xmlns="http://www.w3.org/2000/svg">
<g id="fi-rr-frown" clip-path="url(#clip0_8_1111)">
<path id="Vector" d="M24.5 48C19.7533 48 15.1131 46.5924 11.1663 43.9553C7.21954 41.3181 4.14341 37.5698 2.3269 33.1844C0.510399 28.799 0.0351188 23.9734 0.961164 19.3178C1.88721 14.6623 4.17299 10.3859 7.52945 7.02945C10.8859 3.67299 15.1623 1.38721 19.8178 0.461164C24.4734 -0.464881 29.299 0.0103989 33.6844 1.8269C38.0698 3.64341 41.8181 6.71954 44.4553 10.6663C47.0924 14.6131 48.5 19.2533 48.5 24C48.4931 30.3631 45.9624 36.4636 41.463 40.963C36.9636 45.4624 30.8631 47.9931 24.5 48ZM24.5 4.00001C20.5444 4.00001 16.6776 5.17299 13.3886 7.37062C10.0996 9.56825 7.53617 12.6918 6.02242 16.3463C4.50867 20.0009 4.1126 24.0222 4.88431 27.9018C5.65601 31.7814 7.56082 35.3451 10.3579 38.1421C13.1549 40.9392 16.7186 42.844 20.5982 43.6157C24.4778 44.3874 28.4992 43.9914 32.1537 42.4776C35.8082 40.9639 38.9318 38.4004 41.1294 35.1114C43.327 31.8224 44.5 27.9556 44.5 24C44.4942 18.6975 42.3852 13.6138 38.6357 9.86431C34.8862 6.11484 29.8026 4.00583 24.5 4.00001ZM32.52 36C32.8292 35.993 33.1328 35.9158 33.4078 35.7743C33.6829 35.6328 33.9222 35.4306 34.1077 35.1831C34.2931 34.9356 34.42 34.6492 34.4786 34.3455C34.5372 34.0418 34.5261 33.7288 34.446 33.43C33.7374 31.3316 32.4085 29.4978 30.635 28.1711C28.8615 26.8444 26.7271 26.0873 24.514 26C22.3033 26.0958 20.1728 26.8561 18.4009 28.1816C16.629 29.5071 15.2981 31.3363 14.582 33.43C14.4932 33.7285 14.4754 34.0437 14.53 34.3503C14.5845 34.657 14.7099 34.9466 14.8962 35.1962C15.0825 35.4458 15.3245 35.6485 15.6029 35.788C15.8814 35.9276 16.1886 36.0002 16.5 36H32.52ZM12.5 20C12.5 22 14.29 22 16.5 22C18.71 22 20.5 22 20.5 20C20.5 18.9391 20.0786 17.9217 19.3284 17.1716C18.5783 16.4214 17.5609 16 16.5 16C15.4391 16 14.4217 16.4214 13.6716 17.1716C12.9214 17.9217 12.5 18.9391 12.5 20ZM28.5 20C28.5 22 30.29 22 32.5 22C34.71 22 36.5 22 36.5 20C36.5 18.9391 36.0786 17.9217 35.3284 17.1716C34.5783 16.4214 33.5609 16 32.5 16C31.4391 16 30.4217 16.4214 29.6716 17.1716C28.9214 17.9217 28.5 18.9391 28.5 20Z" fill="#564592"/>
</g>
<defs>
<clipPath id="clip0_8_1111">
<rect width="48" height="48" fill="white" transform="translate(0.5)"/>
</clipPath>
</defs>
</svg>
