<svg width="49" height="48" viewBox="0 0 49 48" fill="none" xmlns="http://www.w3.org/2000/svg">
<g id="fi-rr-heart" clip-path="url(#clip0_8_1133)">
<path id="Vector" d="M35.625 3.83307C33.3729 3.8681 31.1699 4.49678 29.2385 5.65561C27.3071 6.81445 25.7157 8.46241 24.625 10.4331C23.5343 8.46241 21.9428 6.81445 20.0115 5.65561C18.0801 4.49678 15.8771 3.8681 13.625 3.83307C10.0349 3.98905 6.65239 5.55958 4.21654 8.20153C1.7807 10.8435 0.489477 14.3421 0.624978 17.9331C0.624978 27.0271 10.197 36.9591 18.225 43.6931C20.0174 45.1993 22.2837 46.0251 24.625 46.0251C26.9663 46.0251 29.2325 45.1993 31.025 43.6931C39.053 36.9591 48.625 27.0271 48.625 17.9331C48.7605 14.3421 47.4693 10.8435 45.0334 8.20153C42.5976 5.55958 39.2151 3.98905 35.625 3.83307ZM28.455 40.6331C27.3829 41.5358 26.0265 42.0309 24.625 42.0309C23.2235 42.0309 21.867 41.5358 20.795 40.6331C10.519 32.0111 4.62498 23.7391 4.62498 17.9331C4.48826 15.4025 5.35771 12.9205 7.0437 11.0285C8.7297 9.13641 11.0954 7.98777 13.625 7.83307C16.1545 7.98777 18.5203 9.13641 20.2063 11.0285C21.8922 12.9205 22.7617 15.4025 22.625 17.9331C22.625 18.4635 22.8357 18.9722 23.2108 19.3473C23.5858 19.7224 24.0945 19.9331 24.625 19.9331C25.1554 19.9331 25.6641 19.7224 26.0392 19.3473C26.4143 18.9722 26.625 18.4635 26.625 17.9331C26.4883 15.4025 27.3577 12.9205 29.0437 11.0285C30.7297 9.13641 33.0954 7.98777 35.625 7.83307C38.1545 7.98777 40.5203 9.13641 42.2062 11.0285C43.8922 12.9205 44.7617 15.4025 44.625 17.9331C44.625 23.7391 38.731 32.0111 28.455 40.6251V40.6331Z" fill="#564592"/>
</g>
<defs>
<clipPath id="clip0_8_1133">
<rect width="48" height="48" fill="white" transform="translate(0.625)"/>
</clipPath>
</defs>
</svg>
