<svg width="49" height="48" viewBox="0 0 49 48" fill="none" xmlns="http://www.w3.org/2000/svg">
<g id="fi-rr-hand-holding-heart" clip-path="url(#clip0_8_1105)">
<path id="Vector" d="M18.43 48H8.5C6.37827 48 4.34344 47.1571 2.84315 45.6569C1.34285 44.1566 0.5 42.1217 0.5 40V30C0.5 27.8783 1.34285 25.8434 2.84315 24.3431C4.34344 22.8429 6.37827 22 8.5 22H26.214C27.2964 22.0005 28.3603 22.2804 29.3029 22.8126C30.2454 23.3449 31.0346 24.1114 31.594 25.038L38.028 17.968C38.5602 17.3828 39.2025 16.9082 39.9182 16.5713C40.6339 16.2345 41.409 16.042 42.1991 16.0048C42.9892 15.9677 43.779 16.0866 44.5231 16.3548C45.2673 16.623 45.9513 17.0353 46.536 17.568C47.7027 18.6399 48.402 20.127 48.4831 21.7092C48.5643 23.2915 48.0209 24.8424 46.97 26.028L33.37 41.302C31.4922 43.408 29.1905 45.0934 26.6159 46.2477C24.0412 47.402 21.2516 47.9992 18.43 48ZM8.5 26C7.43913 26 6.42172 26.4214 5.67157 27.1716C4.92143 27.9217 4.5 28.9391 4.5 30V40C4.5 41.0609 4.92143 42.0783 5.67157 42.8284C6.42172 43.5786 7.43913 44 8.5 44H18.43C20.6858 43.9991 22.916 43.5215 24.9744 42.5985C27.0328 41.6754 28.8728 40.3278 30.374 38.644L43.984 23.368C44.3374 22.97 44.5203 22.4491 44.4933 21.9175C44.4664 21.386 44.2318 20.8863 43.84 20.526C43.4416 20.1678 42.9193 19.9792 42.384 20C42.1186 20.0112 41.8582 20.0752 41.6178 20.1882C41.3774 20.3011 41.162 20.4609 40.984 20.658L32.132 30.4C31.7434 31.4755 31.07 32.4254 30.1838 33.1482C29.2976 33.871 28.2317 34.3396 27.1 34.504L16.778 35.98C16.2529 36.0553 15.7193 35.919 15.2947 35.6009C14.8702 35.2828 14.5893 34.8091 14.514 34.284C14.4387 33.7589 14.575 33.2253 14.8931 32.8007C15.2112 32.3762 15.6849 32.0953 16.21 32.02L26.534 30.546C27.1071 30.4659 27.6284 30.1712 27.9926 29.7216C28.3568 29.272 28.5368 28.7008 28.4961 28.1236C28.4555 27.5464 28.1973 27.0061 27.7737 26.6119C27.3501 26.2178 26.7926 25.999 26.214 26H8.5ZM22.5 18.148C21.5935 18.1504 20.7135 17.8427 20.006 17.276C16.582 14.528 12.5 10.4 12.5 6.4C12.4509 4.75673 13.0546 3.16089 14.179 1.96153C15.3034 0.762167 16.857 0.0569044 18.5 0C19.9947 0.00582165 21.4287 0.591635 22.5 1.634C23.5713 0.591635 25.0053 0.00582165 26.5 0C28.143 0.0569044 29.6966 0.762167 30.821 1.96153C31.9454 3.16089 32.5491 4.75673 32.5 6.4C32.5 10.4 28.418 14.528 24.992 17.278C24.2848 17.8436 23.4056 18.1505 22.5 18.148ZM18.5 4C17.9187 4.05833 17.3835 4.34244 17.0095 4.79125C16.6355 5.24006 16.4525 5.81771 16.5 6.4C16.5 8.2 18.802 11.18 22.512 14.158C26.198 11.18 28.5 8.2 28.5 6.4C28.5475 5.81771 28.3645 5.24006 27.9905 4.79125C27.6165 4.34244 27.0813 4.05833 26.5 4C25.9187 4.05833 25.3835 4.34244 25.0095 4.79125C24.6355 5.24006 24.4525 5.81771 24.5 6.4C24.5 6.93043 24.2893 7.43914 23.9142 7.81421C23.5391 8.18929 23.0304 8.4 22.5 8.4C21.9696 8.4 21.4609 8.18929 21.0858 7.81421C20.7107 7.43914 20.5 6.93043 20.5 6.4C20.5475 5.81771 20.3645 5.24006 19.9905 4.79125C19.6165 4.34244 19.0813 4.05833 18.5 4Z" fill="#564592"/>
</g>
<defs>
<clipPath id="clip0_8_1105">
<rect width="48" height="48" fill="white" transform="translate(0.5)"/>
</clipPath>
</defs>
</svg>
