<svg width="49" height="48" viewBox="0 0 49 48" fill="none" xmlns="http://www.w3.org/2000/svg">
<g id="fi-rr-cursor" clip-path="url(#clip0_8_1119)">
<path id="Vector" d="M30.1412 47.9999C29.0327 48.0017 27.9453 47.697 26.999 47.1196C26.0528 46.5422 25.2846 45.7145 24.7792 44.7279L18.5252 31.3199L11.4412 37.5059C11.1519 37.7587 10.796 37.9228 10.416 37.9786C10.0359 38.0345 9.64786 37.9797 9.29813 37.8209C8.94839 37.662 8.65179 37.4058 8.44379 37.0829C8.23578 36.76 8.12516 36.384 8.12515 35.9999V5.95991C8.1251 4.80414 8.45886 3.67295 9.08631 2.70232C9.71376 1.73169 10.6082 0.962945 11.6621 0.48849C12.716 0.0140343 13.8845 -0.145934 15.0271 0.0278148C16.1698 0.201564 17.2379 0.701635 18.1032 1.46791L39.5032 21.9439C39.7808 22.2091 39.9763 22.5487 40.0662 22.922C40.156 23.2954 40.1365 23.6867 40.01 24.0492C39.8835 24.4118 39.6552 24.7302 39.3525 24.9666C39.0499 25.2029 38.6856 25.3471 38.3032 25.3819L29.3672 26.1959L35.4972 39.3339C35.9502 40.2472 36.163 41.2609 36.1155 42.2793C36.068 43.2977 35.7619 44.2872 35.2259 45.1544C34.6899 46.0216 33.9418 46.7379 33.0521 47.2358C32.1625 47.7337 31.1606 47.9967 30.1412 47.9999ZM19.2112 26.0639C19.3502 26.064 19.4889 26.0781 19.6252 26.1059C19.9288 26.17 20.2133 26.3038 20.4563 26.4968C20.6993 26.6898 20.8941 26.9367 21.0252 27.2179L28.3752 42.9699C28.4986 43.202 28.6665 43.4074 28.8694 43.5746C29.0722 43.7417 29.306 43.8673 29.5574 43.944C29.8087 44.0208 30.0728 44.0474 30.3344 44.0221C30.596 43.9969 30.8501 43.9204 31.0822 43.7969C31.3142 43.6735 31.5197 43.5055 31.6868 43.3027C31.8539 43.0998 31.9795 42.8661 32.0563 42.6147C32.1331 42.3633 32.1596 42.0993 32.1344 41.8377C32.1091 41.576 32.0326 41.322 31.9092 41.0899L24.5452 25.3079C24.4093 25.0171 24.3455 24.6979 24.3591 24.3772C24.3726 24.0565 24.4631 23.7438 24.623 23.4655C24.7828 23.1872 25.0073 22.9514 25.2775 22.7781C25.5476 22.6049 25.8555 22.4991 26.1752 22.4699L33.5752 21.7959L15.3932 4.41191C15.1082 4.16978 14.7595 4.01496 14.3888 3.96601C14.0181 3.91705 13.6412 3.97605 13.3032 4.13591C12.9498 4.2913 12.6499 4.54695 12.4405 4.87118C12.2311 5.19541 12.1215 5.57396 12.1252 5.95991V31.5999L17.8952 26.5599C18.2593 26.2407 18.7269 26.0645 19.2112 26.0639Z" fill="#564592"/>
</g>
<defs>
<clipPath id="clip0_8_1119">
<rect width="48" height="48" fill="white" transform="translate(0.125)"/>
</clipPath>
</defs>
</svg>
