<svg width="49" height="48" viewBox="0 0 49 48" fill="none" xmlns="http://www.w3.org/2000/svg">
<g id="fi-rr-laugh" clip-path="url(#clip0_8_1095)">
<path id="Vector" d="M24.5 48C19.7533 48 15.1131 46.5924 11.1663 43.9553C7.21954 41.3181 4.14341 37.5698 2.3269 33.1844C0.510399 28.799 0.0351188 23.9734 0.961164 19.3178C1.88721 14.6623 4.17299 10.3859 7.52945 7.02945C10.8859 3.67299 15.1623 1.38721 19.8178 0.461164C24.4734 -0.464881 29.299 0.0103989 33.6844 1.8269C38.0698 3.64341 41.8181 6.71954 44.4553 10.6663C47.0924 14.6131 48.5 19.2533 48.5 24C48.4931 30.3631 45.9624 36.4636 41.463 40.963C36.9636 45.4624 30.8631 47.9931 24.5 48ZM24.5 4.00001C20.5444 4.00001 16.6776 5.17299 13.3886 7.37062C10.0996 9.56825 7.53617 12.6918 6.02242 16.3463C4.50867 20.0009 4.1126 24.0222 4.88431 27.9018C5.65601 31.7814 7.56082 35.3451 10.3579 38.1421C13.1549 40.9392 16.7186 42.844 20.5982 43.6157C24.4778 44.3874 28.4992 43.9914 32.1537 42.4776C35.8082 40.9639 38.9318 38.4004 41.1294 35.1114C43.327 31.8224 44.5 27.9556 44.5 24C44.4942 18.6975 42.3852 13.6138 38.6357 9.86431C34.8862 6.11484 29.8026 4.00583 24.5 4.00001ZM16.5 28C16.1879 27.9986 15.8798 28.0703 15.6003 28.2093C15.3208 28.3483 15.0778 28.5508 14.8906 28.8006C14.7034 29.0504 14.5773 29.3405 14.5223 29.6477C14.4674 29.955 14.4851 30.2708 14.574 30.57C15.2906 32.665 16.6227 34.495 18.3962 35.8206C20.1696 37.1462 22.3019 37.9058 24.514 38C26.7271 37.9127 28.8615 37.1557 30.635 35.8289C32.4085 34.5022 33.7374 32.6684 34.446 30.57C34.5261 30.2712 34.5372 29.9582 34.4786 29.6545C34.42 29.3508 34.2931 29.0644 34.1077 28.8169C33.9222 28.5694 33.6829 28.3672 33.4078 28.2257C33.1328 28.0842 32.8292 28.007 32.52 28H16.5ZM12.5 20C12.5 22 14.29 22 16.5 22C18.71 22 20.5 22 20.5 20C20.5 18.9391 20.0786 17.9217 19.3284 17.1716C18.5783 16.4214 17.5609 16 16.5 16C15.4391 16 14.4217 16.4214 13.6716 17.1716C12.9214 17.9217 12.5 18.9391 12.5 20ZM28.5 20C28.5 22 30.29 22 32.5 22C34.71 22 36.5 22 36.5 20C36.5 18.9391 36.0786 17.9217 35.3284 17.1716C34.5783 16.4214 33.5609 16 32.5 16C31.4391 16 30.4217 16.4214 29.6716 17.1716C28.9214 17.9217 28.5 18.9391 28.5 20Z" fill="#564592"/>
</g>
<defs>
<clipPath id="clip0_8_1095">
<rect width="48" height="48" fill="white" transform="translate(0.5)"/>
</clipPath>
</defs>
</svg>
